<svg fill="none" xmlns="http://www.w3.org/2000/svg" viewBox="0 0 66 70"><path d="m65.316 48.339-18.47-18.605 2.05-10.097a4.655 4.655 0 0 0 1.66.319h.014a4.723 4.723 0 1 0-4.667-4.778 4.719 4.719 0 0 0 .273 1.638l-10.85 1.325L17.628.35a1.166 1.166 0 0 0-.824-.35 1.167 1.167 0 0 0-.817.34L12.68 3.63a1.167 1.167 0 0 0 0 1.65l1.78 1.805C7.562 19.768 9.802 35.474 19.97 45.723c.094.09.202.161.32.213a6.77 6.77 0 0 0-.114 1.197v13.534h-14A5.84 5.84 0 0 0 .342 66.5v2.333C.342 69.478.865 70 1.51 70h53.667c.644 0 1.166-.522 1.166-1.167V66.5a5.84 5.84 0 0 0-5.833-5.833h-14v-5.998a32.879 32.879 0 0 0 6.669.7 32.483 32.483 0 0 0 15.4-3.901l1.79 1.8c.216.221.513.347.823.35a1.167 1.167 0 0 0 .817-.34l3.308-3.29a1.167 1.167 0 0 0 0-1.65ZM48.925 13.635a2.333 2.333 0 0 1 3.29 3.309 2.333 2.333 0 0 1-1.646.679h-.007a2.333 2.333 0 0 1-2.32-2.346 2.334 2.334 0 0 1 .687-1.642h-.004ZM46.178 21.3l-1.309 6.444-2.571-2.587 3.88-3.857Zm-1.325-1.973-4.2 4.176-3.25-3.267 7.45-.909ZM50.509 63a3.5 3.5 0 0 1 3.5 3.5v1.167H2.676V66.5a3.5 3.5 0 0 1 3.5-3.5h44.333Zm-16.333-4.667v2.334H22.509v-2.334h11.667ZM22.509 56v-8.867c0-2.83 2.617-5.133 5.833-5.133 3.217 0 5.834 2.303 5.834 5.133V56H22.509Zm14-3.71v-5.157c0-4.117-3.663-7.466-8.167-7.466a8.312 8.312 0 0 0-7.177 3.907A30.34 30.34 0 0 1 16.181 8.82l40.691 40.924a30.233 30.233 0 0 1-20.363 2.545Zm24.695-1.496-1.644-1.653L16.792 6.116l-1.65-1.655 1.65-1.645L34.15 20.272c.008 0 .013.015.021.021l28.688 28.856-1.655 1.645Z" fill="#212121"/><path d="M28.353 44.333h-.01a3.5 3.5 0 0 0-.011 7h.01a3.5 3.5 0 1 0 .01-7Zm.816 4.328a1.167 1.167 0 0 1-.827.339 1.167 1.167 0 0 1-1.16-1.173 1.167 1.167 0 0 1 1.16-1.16 1.166 1.166 0 0 1 1.16 1.172 1.167 1.167 0 0 1-.343.822h.01Z" fill="#2196F3"/></svg>