<svg fill="none" xmlns="http://www.w3.org/2000/svg" viewBox="0 0 45 42"><path d="M7.406 41.101a.136.136 0 0 1 .046.01.122.122 0 0 1 .039.024l.218.208c-.17.169-.379.304-.614.396a2.39 2.39 0 0 1-.87.142 2.314 2.314 0 0 1-.817-.133 1.794 1.794 0 0 1-.617-.374 1.674 1.674 0 0 1-.398-.578 1.927 1.927 0 0 1-.138-.742 1.799 1.799 0 0 1 .15-.744c.095-.215.238-.411.422-.578.186-.163.409-.291.654-.377a2.565 2.565 0 0 1 .843-.132 2.27 2.27 0 0 1 .782.12c.216.082.415.195.587.335l-.183.222a.178.178 0 0 1-.046.04.125.125 0 0 1-.074.017.177.177 0 0 1-.08-.023l-.097-.06-.137-.075a1.551 1.551 0 0 0-.182-.074 1.889 1.889 0 0 0-.248-.06 1.892 1.892 0 0 0-.325-.023 1.76 1.76 0 0 0-.605.1 1.39 1.39 0 0 0-.475.28c-.136.128-.24.28-.308.445a1.499 1.499 0 0 0-.112.587 1.53 1.53 0 0 0 .112.597c.067.164.17.314.303.443.125.12.28.215.452.275.178.064.37.097.562.095a2.368 2.368 0 0 0 .333-.019 1.316 1.316 0 0 0 .504-.159 1.643 1.643 0 0 0 .216-.147.171.171 0 0 1 .103-.038Zm6.298-1.047a1.81 1.81 0 0 1-.147.737 1.594 1.594 0 0 1-.41.572 1.889 1.889 0 0 1-.645.375 2.655 2.655 0 0 1-1.658 0 1.91 1.91 0 0 1-.64-.376 1.678 1.678 0 0 1-.415-.578 1.922 1.922 0 0 1 0-1.476c.093-.216.234-.413.415-.58.182-.159.4-.282.64-.363a2.61 2.61 0 0 1 1.658 0c.242.085.461.213.643.376.18.165.32.36.412.571.101.238.151.489.147.742Zm-.572 0a1.566 1.566 0 0 0-.104-.592 1.22 1.22 0 0 0-.752-.723 1.918 1.918 0 0 0-1.205 0 1.295 1.295 0 0 0-.461.28 1.191 1.191 0 0 0-.295.443 1.737 1.737 0 0 0 0 1.184 1.209 1.209 0 0 0 .756.72 1.965 1.965 0 0 0 1.205 0c.175-.061.332-.156.46-.277.131-.129.23-.28.292-.443a1.554 1.554 0 0 0 .104-.592Zm4.87.62.057.133c.021-.047.04-.09.062-.132a1.23 1.23 0 0 1 .071-.13l1.393-2.201c.028-.038.052-.062.08-.069a.373.373 0 0 1 .114-.012h.412v3.58h-.488v-2.744a.938.938 0 0 1 0-.123L18.3 41.208a.203.203 0 0 1-.082.081.245.245 0 0 1-.12.03h-.079a.243.243 0 0 1-.12-.03.2.2 0 0 1-.081-.081l-1.443-2.246v2.873h-.471v-3.572h.411a.373.373 0 0 1 .115.012.154.154 0 0 1 .076.069l1.423 2.203a.76.76 0 0 1 .071.128Zm5.242-.177v1.34H22.7v-3.574h1.216a2.604 2.604 0 0 1 .679.078c.176.044.34.12.48.223a.922.922 0 0 1 .272.35c.065.146.096.302.093.458a1.024 1.024 0 0 1-.1.457.993.993 0 0 1-.295.358 1.392 1.392 0 0 1-.483.236 2.3 2.3 0 0 1-.657.083l-.66-.01Zm0-.384h.66a1.523 1.523 0 0 0 .423-.054.924.924 0 0 0 .305-.154.633.633 0 0 0 .185-.237.686.686 0 0 0 .066-.301.605.605 0 0 0-.055-.291.69.69 0 0 0-.19-.244 1.172 1.172 0 0 0-.734-.192h-.66v1.473Zm7.329 1.73h-.43a.205.205 0 0 1-.12-.034.222.222 0 0 1-.072-.083l-.37-.864h-1.863l-.384.864a.198.198 0 0 1-.068.08.205.205 0 0 1-.123.036h-.43l1.635-3.58h.567l1.658 3.58Zm-2.7-1.33h1.538l-.648-1.457a2.366 2.366 0 0 1-.123-.336l-.063.187a1.692 1.692 0 0 1-.06.152l-.643 1.454Zm5.056-2.233a.232.232 0 0 1 .081.063l2.386 2.699v-2.78h.488v3.58h-.272a.265.265 0 0 1-.112-.02.299.299 0 0 1-.087-.067l-2.383-2.696a.974.974 0 0 1 0 .123v2.66h-.488v-3.58h.289a.258.258 0 0 1 .098.017Zm6.974 2.139v1.421h-.545V40.42l-1.508-2.156h.488a.197.197 0 0 1 .117.03.316.316 0 0 1 .074.081l.943 1.391c.038.06.071.114.098.166.028.052.05.102.069.151l.07-.154a1.248 1.248 0 0 1 .093-.163l.93-1.4a.376.376 0 0 1 .07-.076.182.182 0 0 1 .118-.035h.493l-1.51 2.165Zm-22.172-8.163c.237.026.477.048.72.067 3.679-1.43 6.791-3.77 8.948-6.729 2.156-2.958 3.261-6.403 3.177-9.904l-4.054-3.522c.824 3.727.438 7.58-1.114 11.128-1.553 3.548-4.21 6.65-7.677 8.96Z" fill="#AFB1B8"/><path d="m16.284 32.092.109.02c3.704-2.303 6.528-5.517 8.106-9.228 1.579-3.711 1.84-7.749.75-11.59l-5.775-5.017c2.335 4.124 3.276 8.74 2.71 13.31-.564 4.57-2.61 8.906-5.9 12.505Zm19.584-12.265c-.981 3.846-3.364 7.315-6.795 9.892a21.629 21.629 0 0 1-3.228 2.013c2.794-.713 5.361-1.974 7.505-3.686s3.807-3.829 4.86-6.187l-2.342-2.033Z" fill="#AFB1B8"/><path d="m34.949 19.26-3.334-2.897c-.064 3.303-1.145 6.531-3.13 9.348-1.986 2.818-4.804 5.122-8.16 6.673h.016a21.743 21.743 0 0 0 2.238-.116c3.137-1.113 5.909-2.883 8.067-5.153 2.159-2.27 3.637-4.968 4.303-7.855ZM16.766 4.161 12.788.7C9.232 1.894 6.174 3.993 4.013 6.722S.691 12.684.68 15.996c.013 3.66 1.431 7.212 4.03 10.093 2.597 2.881 6.227 4.927 10.314 5.814 3.648-3.862 5.785-8.634 6.098-13.623.313-4.99-1.213-9.935-4.356-14.119ZM44.14 18.727c-.014-4.342-2.006-8.503-5.54-11.574-3.534-3.07-8.324-4.801-13.322-4.813-2.31-.002-4.6.368-6.753 1.092l24.355 21.16a14.352 14.352 0 0 0 1.26-5.865Z" fill="#AFB1B8"/></svg>