<svg fill="none" xmlns="http://www.w3.org/2000/svg" viewBox="0 0 40 52"><path fill-rule="evenodd" clip-rule="evenodd" d="M17.114 2.934h-.137a17.43 17.43 0 0 0-.63-.022h-.455c-.397 0-.802.01-1.204.03a.625.625 0 0 0-.091 0A28.275 28.275 0 0 0 4.08 5.625l-.433.208v22.142l1.012-.344a38.43 38.43 0 0 1 2.813-.834 34.328 34.328 0 0 1 8.095-1.075v2.909a24.435 24.435 0 0 0-1.065.03h-.083a32.36 32.36 0 0 0-6.229.956 31.634 31.634 0 0 0-7.42 2.892V4.112A29.727 29.727 0 0 1 8.557.946 29.793 29.793 0 0 1 15.892 0h.427c.511.013 1.01.036 1.478.071a21.09 21.09 0 0 1 3.655.583v2.863a22.623 22.623 0 0 0-3.542-.534l-.072-.006c-.247-.021-.494-.042-.724-.042Zm5.039 2.927c.635.049 1.293.072 1.958.072a31.467 31.467 0 0 0 7.713-.99A31.777 31.777 0 0 0 39.24 2.05v27.89a29.815 29.815 0 0 1-7.786 3.166 29.943 29.943 0 0 1-7.337.944 22.405 22.405 0 0 1-5.565-.656V5.321c.43.1.873.191 1.323.267.739.125 1.518.216 2.277.272Zm14.194.216-1.012.341a44.554 44.554 0 0 1-2.813.842 34.263 34.263 0 0 1-8.406 1.078c-.66 0-1.267-.018-1.854-.056l-.807-.053v22.777l.693.06c.642.057 1.305.085 1.973.085a26.884 26.884 0 0 0 6.62-.857 27.764 27.764 0 0 0 5.174-1.86l.432-.208V6.078Z" fill="#AFB1B8"/><path d="M2.737 42.212a1.492 1.492 0 0 0-.515-.347 1.486 1.486 0 0 0-.61-.108 1.673 1.673 0 0 0-.65.122 1.501 1.501 0 0 0-.507.333 1.463 1.463 0 0 0-.326.509 1.65 1.65 0 0 0-.116.628v3.794c-.01.267.042.533.149.778.09.195.219.368.38.509.151.128.329.22.52.27.185.051.375.078.567.078a1.42 1.42 0 0 0 .612-.132 1.599 1.599 0 0 0 .506-.351 1.648 1.648 0 0 0 .332-.509 1.532 1.532 0 0 0 .121-.605v-.424h-.992v.338a.881.881 0 0 1-.058.338.609.609 0 0 1-.144.214.605.605 0 0 1-.207.109.697.697 0 0 1-.208.036.503.503 0 0 1-.26-.04.506.506 0 0 1-.205-.164.899.899 0 0 1-.132-.508v-3.538a1.208 1.208 0 0 1 .122-.567.507.507 0 0 1 .21-.184.503.503 0 0 1 .275-.045.527.527 0 0 1 .443.214.806.806 0 0 1 .164.509v.328h.982v-.387a1.788 1.788 0 0 0-.121-.664 1.562 1.562 0 0 0-.332-.534Zm5.892-.043a1.765 1.765 0 0 0-1.128-.417 1.734 1.734 0 0 0-.592.107 1.607 1.607 0 0 0-.524.31 1.559 1.559 0 0 0-.385.532 1.77 1.77 0 0 0-.144.735v3.638c-.006.256.043.51.145.746.09.195.22.369.384.508.152.14.33.25.524.32.19.07.39.106.592.107a1.714 1.714 0 0 0 .592-.106 1.657 1.657 0 0 0 .536-.321 1.553 1.553 0 0 0 .374-.508 1.755 1.755 0 0 0 .144-.746v-3.638a1.77 1.77 0 0 0-.144-.735 1.643 1.643 0 0 0-.374-.532Zm-.463 4.905a.654.654 0 0 1-.197.527.727.727 0 0 1-.467.17.727.727 0 0 1-.467-.17.652.652 0 0 1-.197-.527v-3.639a.654.654 0 0 1 .197-.526.727.727 0 0 1 .467-.17.727.727 0 0 1 .467.17.654.654 0 0 1 .197.526v3.64Zm8.201 1.625v-6.888h-.953l-1.253 3.646h-.017l-1.263-3.646h-.943v6.888h.984v-4.19h.018l.963 2.962h.491l.972-2.962h.017v4.19h.984Zm5.591-6.405a1.366 1.366 0 0 0-.556-.377 2.184 2.184 0 0 0-.714-.106h-1.462v6.888h.982v-2.69h.505c.307.014.611-.051.886-.188a1.43 1.43 0 0 0 .539-.527 1.649 1.649 0 0 0 .225-.6 4.9 4.9 0 0 0 .053-.783 3.923 3.923 0 0 0-.096-.984 1.466 1.466 0 0 0-.362-.633Zm-.506 2.1a.867.867 0 0 1-.091.359.552.552 0 0 1-.253.241 1.006 1.006 0 0 1-.463.087h-.448v-2.342h.506a.942.942 0 0 1 .443.086.556.556 0 0 1 .23.254c.054.121.083.252.086.384v.458c0 .16.01.326 0 .473h-.01Zm5.156-2.583h-.805l-1.518 6.888h.982l.288-1.48h1.338l.289 1.48h.982l-1.556-6.888Zm-.906 4.47.483-2.497h.018l.48 2.497h-.981Zm7.248-.32h-.018l-1.482-4.15h-.944v6.888h.982v-4.142h.02l1.5 4.142h.923v-6.888h-.981v4.15Zm5.998-4.15-.79 2.738h-.02l-.79-2.738H36.31l1.348 3.977v2.911h.982v-2.911l1.348-3.977h-1.04ZM0 50.645h.473v1.327h.321v-1.328h.47v-.272H0v.272Zm3.977-.273-.62 1.6h.341l.132-.364h.637l.137.364h.35l-.636-1.6h-.341Zm-.05.967.217-.593.217.593h-.435Zm3.981.043h.37v.206a.613.613 0 0 1-.38.135.404.404 0 0 1-.34-.153.669.669 0 0 1-.118-.417c0-.356.154-.534.46-.534a.338.338 0 0 1 .228.06.34.34 0 0 1 .134.195l.316-.061c-.068-.313-.293-.47-.678-.47a.804.804 0 0 0-.559.205.78.78 0 0 0-.182.282.784.784 0 0 0-.048.333.873.873 0 0 0 .205.6.773.773 0 0 0 .607.235.96.96 0 0 0 .678-.255v-.63h-.693v.27Zm4.015-1.01h-.324v1.6h1.12V51.7h-.796v-1.328Zm3.395 0h-.324v1.6h.324v-1.6Zm3.319 1.069-.656-1.069h-.313v1.6h.3v-1.045l.643 1.045h.321v-1.6h-.295v1.068Zm3-.174h.797v-.272h-.797v-.35h.857v-.273h-1.181v1.6h1.214V51.7h-.89v-.433Zm7.275-.264h-.63v-.63h-.32v1.599h.32v-.7h.63v.7h.321v-1.6h-.32v.631Zm3.018.264h.8v-.272h-.8v-.35h.86v-.273H31.61v1.6h1.212V51.7h-.89v-.433Zm4.093 0c.278-.043.42-.19.42-.444a.383.383 0 0 0-.157-.356.904.904 0 0 0-.468-.094h-.678v1.599h.322v-.669h.063a.431.431 0 0 1 .2.036.335.335 0 0 1 .114.117l.349.508h.384l-.195-.312a1.115 1.115 0 0 0-.354-.384Zm-.324-.22h-.237v-.402h.253a.84.84 0 0 1 .326.038.21.21 0 0 1-.015.325.913.913 0 0 1-.327.038Zm3.41.22h.797v-.272h-.796v-.35h.86v-.273h-1.184v1.6H40V51.7h-.89v-.433Z" fill="#AFB1B8"/></svg>