<svg fill="none" xmlns="http://www.w3.org/2000/svg" viewBox="0 0 94 45"><path d="M47.425 21.408a2.947 2.947 0 0 1-.605-1.988v-2.884c0-.883.2-1.555.602-2.015.4-.46 1.089-.688 2.065-.686.917 0 1.568.196 1.953.587.42.499.625 1.109.578 1.724v.678h-1.64v-.686a3.494 3.494 0 0 0-.048-.672.65.65 0 0 0-.235-.399.95.95 0 0 0-.594-.155 1.005 1.005 0 0 0-.625.164.768.768 0 0 0-.272.44 3.332 3.332 0 0 0-.065.713v3.499c-.026.337.047.675.21.982a.77.77 0 0 0 .328.238.9.9 0 0 0 .424.056.893.893 0 0 0 .58-.159.704.704 0 0 0 .245-.425 3.859 3.859 0 0 0 .051-.701v-.71h1.641v.648a2.64 2.64 0 0 1-.567 1.813c-.377.428-1.02.642-1.964.642s-1.658-.229-2.062-.704Zm6.832.03c-.415-.45-.622-1.103-.622-1.968v-3.033c0-.857.207-1.505.622-1.945.414-.44 1.107-.659 2.079-.657.965 0 1.654.22 2.069.657.414.44.625 1.088.625 1.945v3.033c0 .856-.21 1.513-.632 1.965-.421.451-1.107.677-2.062.677-.955 0-1.661-.229-2.08-.674Zm2.843-.728c.149-.28.216-.589.197-.897v-3.714a1.65 1.65 0 0 0-.193-.88.776.776 0 0 0-.335-.241.907.907 0 0 0-.433-.052.918.918 0 0 0-.434.052.786.786 0 0 0-.337.241c-.15.275-.217.577-.197.88v3.731c-.02.309.047.617.197.898.095.094.214.17.346.222a1.158 1.158 0 0 0 .843 0 1.022 1.022 0 0 0 .346-.222v-.018Zm3.904-6.786h1.766l1.328 5.595 1.36-5.595h1.718L67.35 22h-1.271l-.136-5.613L64.632 22h-1.02l-1.358-5.633L62.128 22h-1.284l.16-8.076Zm8.326 0h2.752c1.585 0 2.378.764 2.378 2.293 0 1.464-.835 2.196-2.504 2.194h-.937V22H69.32l.01-8.077Zm2.351 3.451c.168.019.338.005.5-.039a1.225 1.225 0 0 0 .434-.216c.195-.273.281-.593.245-.912a2.525 2.525 0 0 0-.082-.733.594.594 0 0 0-.125-.222.703.703 0 0 0-.214-.162 1.759 1.759 0 0 0-.758-.13h-.659v2.414h.66Zm5.228-3.451h1.825L80.606 22h-1.584l-.37-1.862h-1.627L76.645 22h-1.607l1.871-8.076Zm1.56 5.279-.636-3.39-.635 3.39h1.27Zm3.648-5.28h1.19l2.275 4.608v-4.607h1.41V22h-1.131l-2.29-4.81V22h-1.457l.003-8.076Zm8.177 4.998-1.892-4.986h1.593l1.156 3.203 1.083-3.203h1.56l-1.869 4.986V22h-1.63v-3.08Zm-40.246 6.61v.423h-1.386v3.282h-.581v-3.282h-1.393v-.422h3.36Zm4.345 3.705h-.449a.2.2 0 0 1-.126-.035.194.194 0 0 1-.074-.085l-.401-.88H51.42l-.4.88a.243.243 0 0 1-.062.1.208.208 0 0 1-.126.035h-.448l1.698-3.704h.592l1.719 3.69Zm-2.813-1.375h1.603l-.68-1.508a2.699 2.699 0 0 1-.125-.349c-.024.07-.044.138-.064.197l-.062.155-.672 1.505Zm5.741 1.011c.107.005.213.005.32 0a1.917 1.917 0 0 0 .271-.044 2.104 2.104 0 0 0 .245-.067c.075-.026.15-.059.227-.091v-.833h-.679a.137.137 0 0 1-.05-.006.125.125 0 0 1-.042-.023.086.086 0 0 1-.026-.03.074.074 0 0 1-.008-.038v-.284h1.318v1.42a2.506 2.506 0 0 1-.716.301 3.056 3.056 0 0 1-.425.077 5.128 5.128 0 0 1-.496.023 2.59 2.59 0 0 1-.856-.138 2.09 2.09 0 0 1-.68-.387 1.79 1.79 0 0 1-.438-.587 1.851 1.851 0 0 1-.156-.768 1.92 1.92 0 0 1 .153-.774c.098-.22.247-.42.438-.587.194-.167.425-.297.68-.384a2.854 2.854 0 0 1 .91-.138 3.43 3.43 0 0 1 .472.032 2.333 2.333 0 0 1 .404.094c.12.038.233.088.34.147.104.058.203.122.296.193l-.163.229a.142.142 0 0 1-.055.05.17.17 0 0 1-.078.02.222.222 0 0 1-.105-.029 2.114 2.114 0 0 1-.167-.088 1.504 1.504 0 0 0-.227-.1 2.127 2.127 0 0 0-.313-.082 2.614 2.614 0 0 0-.431-.032 2.009 2.009 0 0 0-.656.103c-.189.065-.36.165-.5.293a1.29 1.29 0 0 0-.315.46 1.732 1.732 0 0 0 0 1.235c.074.174.19.333.34.467.139.127.308.227.495.293.216.064.445.089.673.073Zm5.415-.058h1.855v.422H62.17v-3.704h.58l-.013 3.282Zm3.785.422h-.581v-3.704h.58v3.704Zm2.16-3.687a.279.279 0 0 1 .089.068l2.483 2.792a.881.881 0 0 1 0-.132v-2.76h.506v3.72h-.292a.275.275 0 0 1-.126-.021.328.328 0 0 1-.091-.07l-2.48-2.79v2.88h-.486v-3.704h.302a.268.268 0 0 1 .095.017Zm7.355-.017v.407h-2.058v1.223h1.668v.393h-1.668v1.264h2.058v.408H73.38v-3.695h2.656ZM15.162 2.655 40.957 8.98v22.158l-25.795-6.32V2.654ZM13.507.768v25.126l29.1 7.136V7.905L13.508.767Z" fill="#AFB1B8"/><path d="M29.104 44.692 0 37.55V12.427l29.104 7.139v25.126Z" fill="#AFB1B8"/><path d="m13.99 2.371 25.458 6.244-10.827 9.35L3.16 11.718 13.99 2.37ZM13.507.767 0 12.427l29.104 7.14L42.608 7.904 13.508.767Zm17.234 42.512L42.608 33.03 30.74 30.12v13.16Z" fill="#AFB1B8"/></svg>