<svg fill="none" xmlns="http://www.w3.org/2000/svg" viewBox="0 0 70 70"><g clip-path="url(#a)"><path d="M68.461 33.471C68.458 14.982 53.466-.004 34.975 0 16.485.004 1.5 14.996 1.504 33.486A33.479 33.479 0 0 0 24.8 65.37c.132.042.27.063.408.063a1.477 1.477 0 0 0 .75-.205 1.394 1.394 0 0 0 .619-.78l8.454-26.797a4.184 4.184 0 1 0-.043-8.37 4.127 4.127 0 0 0-1.794.42L22.025 18.53a1.395 1.395 0 0 0-1.972 1.973l11.163 11.176a4.104 4.104 0 0 0 1.173 5.051l-8.055 25.535C8.414 56.4.262 38.74 6.126 22.82 11.991 6.9 29.65-1.252 45.571 4.613c15.92 5.864 24.072 23.524 18.207 39.444a30.72 30.72 0 0 1-16.323 17.442l-.87-4.1a1.394 1.394 0 0 0-1.654-1.076 1.402 1.402 0 0 0-.64.324l-8.393 7.494a1.394 1.394 0 0 0 .505 2.371l10.716 3.42a1.394 1.394 0 0 0 1.754-.9 1.395 1.395 0 0 0 .037-.718l-.855-4.023a33.37 33.37 0 0 0 20.406-30.82Zm-33.478-1.394a1.395 1.395 0 1 1 0 2.79 1.395 1.395 0 0 1 0-2.79Zm4.594 32.515 4.778-4.262 1.319 6.213-6.097-1.951Z" fill="#212121"/><path d="M33.588 6.967v2.79a1.395 1.395 0 1 0 2.79 0v-2.79a1.395 1.395 0 0 0-2.79 0Zm-25.11 25.11a1.395 1.395 0 0 0 0 2.79h2.79a1.395 1.395 0 1 0 0-2.79h-2.79Zm53.009 2.79a1.395 1.395 0 1 0 0-2.79h-2.79a1.395 1.395 0 0 0 0 2.79h2.79Z" fill="#2196F3"/></g><defs><clipPath id="a"><path fill="#fff" d="M0 0h70v70H0z"/></clipPath></defs></svg>